<svg width="42" height="43" viewBox="0 0 42 43" fill="none" xmlns="http://www.w3.org/2000/svg">
<g clip-path="url(#clip0_126_647)">
<path d="M36.4194 18.3287L31.4738 31.4203C30.5525 33.7006 28.7631 35.5213 26.4996 36.4821L24.8194 37.1953C20.4989 39.0292 15.5091 37.0135 13.6751 32.6927C12.7913 30.6106 11.3751 28.7985 9.56901 27.4374L4.9513 23.9576C4.24441 23.425 3.97405 22.5202 4.22016 21.7128C4.63227 20.3554 6.27943 19.7993 7.43151 20.6665C14.1517 25.7307 6.36964 19.8662 14.0074 25.6219C6.17111 15.5921 6.32518 15.9185 6.17151 15.2593C6.14539 15.1978 6.09262 14.8584 6.10878 14.5991C6.22065 12.4343 8.94308 11.6106 10.2509 13.2836C10.6594 13.8066 17.0819 22.0274 17.4759 22.5317C11.9901 9.6081 12.2582 10.2655 12.2003 10.0555C11.878 8.88515 12.5253 7.72333 13.418 7.3444C14.6286 6.7594 16.0527 7.31433 16.5657 8.52288L21.8992 21.0878C20.1848 7.13078 20.2591 8.12891 20.3521 7.61514C20.5338 6.50013 21.6325 5.59819 22.8714 5.73437C23.8341 5.79591 24.77 6.60595 24.9266 7.71723L26.7412 20.6301L27.8112 23.1508C28.1699 23.996 29.3707 23.9857 29.7146 23.1347C31.1734 18.5964 31.0394 18.9934 31.1224 18.8068C32.0227 16.8012 33.9552 15.7422 34.7644 15.7926C36.0118 15.7984 36.9287 17.0682 36.4194 18.3287Z" fill="#F9CFAC"/>
<path d="M36.0465 16.3413L30.3562 31.2164C29.5551 32.8834 28.2763 34.2691 26.6887 35.199C21.6867 38.1345 16.1388 35.8604 14.2209 31.3421C13.3371 29.26 11.9209 27.448 10.1149 26.0868C3.93338 21.5052 4.2937 21.7747 4.22025 21.713C4.44991 20.9567 5.10146 20.3798 5.91885 20.2702C6.3779 20.2085 6.69311 20.2962 7.07379 20.45C10.52 22.9687 14.0134 25.6197 14.0075 25.6222C14.5158 25.4064 14.6812 24.7671 14.3411 24.3319C7.02486 14.9677 7.43714 15.5677 7.26293 15.1034C6.996 14.4292 7.08437 13.5531 7.56305 12.9118C7.76346 12.6418 8.02482 12.4342 8.04902 12.4237C8.8573 12.2911 9.71092 12.5933 10.251 13.2839C10.9712 14.2058 16.6974 21.5354 17.476 22.532C11.7955 9.1496 12.2427 10.2429 12.1714 9.94287C12.093 9.5981 12.0997 9.23944 12.1624 8.95764C12.2322 8.61203 12.3961 8.31213 12.4021 8.30959C13.3751 6.57997 15.8288 6.78691 16.5658 8.52312L21.8993 21.0881C20.2361 7.548 20.32 8.26177 20.3168 8.1648C20.2109 6.51038 21.926 5.18739 23.5962 5.93269C23.7042 5.98428 23.4949 4.78407 25.8684 21.2107L26.9384 23.7314C27.2462 24.4566 28.3528 24.8133 29.1333 24.0525C29.6575 23.5413 29.7947 22.8859 30.0396 22.1241C31.1416 18.6969 31.0079 19.1017 31.0912 18.8796C31.463 18.0017 32.0844 17.1781 32.9349 16.5597C33.2936 16.3002 33.8874 15.9532 34.2965 15.8488C34.8524 15.7078 35.4163 15.8405 35.8392 16.1593C35.9545 16.2436 36.0412 16.3366 36.0465 16.3413Z" fill="#FFE4CC"/>
<path d="M24.7362 34.3628C24.4744 34.4739 24.1719 34.3518 24.0608 34.0899C22.4531 30.3025 23.9078 25.8699 27.4444 23.7794C27.6904 23.6347 28.0053 23.7158 28.1499 23.9607C28.2947 24.2056 28.2135 24.5215 27.9686 24.6662C24.8747 26.495 23.6023 30.3734 25.009 33.6874C25.1202 33.9492 24.9981 34.2517 24.7362 34.3628Z" fill="#F9CFAC"/>
</g>
<defs>
<clipPath id="clip0_126_647">
<rect width="32" height="32" fill="white" transform="translate(0 13) rotate(-23)"/>
</clipPath>
</defs>
</svg>
